name C:/MyDriveSym/Projects/mobilecap/Data\Session20210816_0002\mocap\ForceDataProcessed\walking2_forces.mot
datacolumns 19
datarows 19
range 0.33950000 0.34850000
endheader 
time	R_ground_force_vx	R_ground_force_vy	R_ground_force_vz	R_ground_force_px	R_ground_force_py	R_ground_force_pz	R_ground_torque_x	R_ground_torque_y	R_ground_torque_z	L_ground_force_vx	L_ground_force_vy	L_ground_force_vz	L_ground_force_px	L_ground_force_py	L_ground_force_pz	L_ground_torque_x	L_ground_torque_y	L_ground_torque_z	
          0.33950000	        -17.08943200	        523.99695900	        -14.50738000	          0.23611400	          0.00600000	         -0.19307200	          0.00000000	         -1.88543500	          0.00000000	          0.00000000	          0.00000000	          0.00000000	          0.73985600	          0.00000000	         -0.22117200	          0.00000000	          0.00000000	          0.00000000	
          0.34000000	        -16.90466300	        523.95793200	        -14.48591200	          0.23625700	          0.00600000	         -0.19303200	          0.00000000	         -1.89706300	          0.00000000	          0.00000000	          0.00000000	          0.00000000	          0.73985600	          0.00000000	         -0.22117200	          0.00000000	          0.00000000	          0.00000000	
          0.34050000	        -16.71933400	        523.92384600	        -14.46514300	          0.23640000	          0.00600000	         -0.19299300	          0.00000000	         -1.90863500	          0.00000000	          0.00000000	          0.00000000	          0.00000000	          0.73985600	          0.00000000	         -0.22117200	          0.00000000	          0.00000000	          0.00000000	
          0.34100000	        -16.53343900	        523.89472000	        -14.44507400	          0.23654200	          0.00600000	         -0.19295300	          0.00000000	         -1.92015100	          0.00000000	          0.00000000	          0.00000000	          0.00000000	          0.73985600	          0.00000000	         -0.22117200	          0.00000000	          0.00000000	          0.00000000	
          0.34150000	        -16.34697200	        523.87057300	        -14.42570900	          0.23668400	          0.00600000	         -0.19291300	          0.00000000	         -1.93160900	          0.00000000	          0.00000000	          0.00000000	          0.00000000	          0.73985600	          0.00000000	         -0.22117200	          0.00000000	          0.00000000	          0.00000000	
          0.34200000	        -16.15992600	        523.85142300	        -14.40704800	          0.23682500	          0.00600000	         -0.19287400	          0.00000000	         -1.94301100	          0.00000000	          0.00000000	          0.00000000	          0.00000000	          0.73985600	          0.00000000	         -0.22117200	          0.00000000	          0.00000000	          0.00000000	
          0.34250000	        -15.97229400	        523.83728900	        -14.38909400	          0.23696600	          0.00600000	         -0.19283400	          0.00000000	         -1.95435500	          0.00000000	          0.00000000	          0.00000000	          0.00000000	          0.73985600	          0.00000000	         -0.22117200	          0.00000000	          0.00000000	          0.00000000	
          0.34300000	        -15.78407200	        523.82819000	        -14.37185000	          0.23710700	          0.00600000	         -0.19279400	          0.00000000	         -1.96564000	          0.00000000	          0.00000000	          0.00000000	          0.00000000	          0.73985600	          0.00000000	         -0.22117200	          0.00000000	          0.00000000	          0.00000000	
          0.34350000	        -15.59525300	        523.82414300	        -14.35531600	          0.23724800	          0.00600000	         -0.19275500	          0.00000000	         -1.97686600	          0.00000000	          0.00000000	          0.00000000	          0.00000000	          0.73985600	          0.00000000	         -0.22117200	          0.00000000	          0.00000000	          0.00000000	
          0.34400000	        -15.40583200	        523.82516600	        -14.33949600	          0.23738800	          0.00600000	         -0.19271500	          0.00000000	         -1.98803300	          0.00000000	          0.00000000	          0.00000000	          0.00000000	          0.73985600	          0.00000000	         -0.22117200	          0.00000000	          0.00000000	          0.00000000	
          0.34450000	        -15.21580200	        523.83127800	        -14.32439000	          0.23752800	          0.00600000	         -0.19267500	          0.00000000	         -1.99913900	          0.00000000	          0.00000000	          0.00000000	          0.00000000	          0.73985600	          0.00000000	         -0.22117200	          0.00000000	          0.00000000	          0.00000000	
          0.34500000	        -15.02515800	        523.84249700	        -14.31000200	          0.23766700	          0.00600000	         -0.19263500	          0.00000000	         -2.01018500	          0.00000000	          0.00000000	          0.00000000	          0.00000000	          0.73985600	          0.00000000	         -0.22117200	          0.00000000	          0.00000000	          0.00000000	
          0.34550000	        -14.83389400	        523.85883900	        -14.29633200	          0.23780700	          0.00600000	         -0.19259600	          0.00000000	         -2.02117000	          0.00000000	          0.00000000	          0.00000000	          0.00000000	          0.73985600	          0.00000000	         -0.22117200	          0.00000000	          0.00000000	          0.00000000	
          0.34600000	        -14.64200500	        523.88032300	        -14.28338300	          0.23794600	          0.00600000	         -0.19255600	          0.00000000	         -2.03209200	          0.00000000	          0.00000000	          0.00000000	          0.00000000	          0.73985600	          0.00000000	         -0.22117200	          0.00000000	          0.00000000	          0.00000000	
          0.34650000	        -14.44948600	        523.90696500	        -14.27115600	          0.23808400	          0.00600000	         -0.19251600	          0.00000000	         -2.04295200	          0.00000000	          0.00000000	          0.00000000	          0.00000000	          0.73985600	          0.00000000	         -0.22117200	          0.00000000	          0.00000000	          0.00000000	
          0.34700000	        -14.25633100	        523.93878300	        -14.25965300	          0.23822200	          0.00600000	         -0.19247600	          0.00000000	         -2.05375000	          0.00000000	          0.00000000	          0.00000000	          0.00000000	          0.73985600	          0.00000000	         -0.22117200	          0.00000000	          0.00000000	          0.00000000	
          0.34750000	        -14.06253600	        523.97579400	        -14.24887700	          0.23836000	          0.00600000	         -0.19243600	          0.00000000	         -2.06448300	          0.00000000	          0.00000000	          0.00000000	          0.00000000	          0.73985600	          0.00000000	         -0.22117200	          0.00000000	          0.00000000	          0.00000000	
          0.34800000	        -13.86809400	        524.01801400	        -14.23882800	          0.23849800	          0.00600000	         -0.19239600	          0.00000000	         -2.07515300	          0.00000000	          0.00000000	          0.00000000	          0.00000000	          0.73985600	          0.00000000	         -0.22117200	          0.00000000	          0.00000000	          0.00000000	
          0.34850000	        -13.67300200	        524.06545900	        -14.22950900	          0.23863500	          0.00600000	         -0.19235700	          0.00000000	         -2.08575800	          0.00000000	          0.00000000	          0.00000000	          0.00000000	          0.73985600	          0.00000000	         -0.22117200	          0.00000000	          0.00000000	          0.00000000	
